<?xml version="1.0" encoding="UTF-8"?>
<svg id="Layer_1" data-name="Layer 1" xmlns="http://www.w3.org/2000/svg" viewBox="0 0 19.62 3.82">
  <defs>
    <style>
      .cls-1 {
        fill: #fff;
        stroke-width: 0px;
      }
    </style>
  </defs>
  <path class="cls-1" d="m0,1.15c.33-.03.66-.06,1-.1.17-.02.33-.04.5-.08.47-.11.93-.15,1.41-.13.29,0,.58-.07.86-.14.28-.07.56-.09.86-.08.28.01.57,0,.84-.06.62-.16,1.23-.23,1.87-.1.31.06.63,0,.95,0,.15,0,.3,0,.45,0,.05,0,.1,0,.14,0,.54-.21,1.09-.26,1.67-.22.15.01.3-.02.44-.04.05,0,.1-.03.14,0,.58.27,1.16.15,1.75.05.44-.07.89-.15,1.33-.22.07-.01.15-.01.23,0-.36.17-.75.24-1.12.5.35.1.64.18.96.1.4-.1.81-.19,1.21-.28.06-.01.12-.01.18,0-.06.03-.12.05-.18.08,0,.01,0,.03,0,.04.09.02.18.05.28.06.45.06.91.11,1.36.18.1.01.18.1.28.14.09.04.18.08.28.09.65.04,1.3.06,1.94.09,0,.02,0,.03,0,.05-.1.02-.2.05-.3.07-.6.13-1.2.25-1.8.38-.17.04-.34.12-.51.18-.05.02-.12.03-.14.07-.2.27-.5.22-.77.28-.37.07-.73.15-1.09.23-.08.02-.16.06-.26.09.05.04.07.07.13.13-.23,0-.44,0-.64-.01-.47-.02-.94-.04-1.4-.05-.09,0-.17.04-.26.09.27.25.62.3.93.44,0,.02,0,.03,0,.05-.48-.06-.98-.08-1.45-.19-.57-.13-1.11-.15-1.66.06-.3.11-.61.13-.92.07-.12-.02-.25-.04-.37-.05,0,.02-.01.04-.02.05.68.29,1.35.57,2.08.88-.19-.01-.33-.03-.47-.04-.59-.03-1.18-.08-1.76-.07-.19,0-.31-.03-.45-.14-.05-.04-.16-.02-.23-.04-.05-.01-.11-.03-.15-.06-.13-.13-.24-.27-.37-.4-.09-.09-.23-.15-.29-.25-.14-.23-.37-.17-.57-.21-.03,0-.06-.01-.09-.02-.73-.29-1.52-.33-2.28-.51-.01,0-.02,0-.06.01.16.14.32.27.47.4,0,.01-.02.03-.03.04-.16-.08-.32-.18-.48-.25-.19-.09-.39-.15-.58-.23-.05-.02-.08-.08-.13-.12-.03-.02-.05-.05-.09-.06-.27-.06-.55-.15-.82-.17-.26-.01-.48-.05-.72-.17-.24-.12-.53-.15-.8-.2-.37-.06-.74-.1-1.11-.15-.06,0-.11-.02-.17-.03v-.02Z"/>
</svg>