<?xml version="1.0" encoding="UTF-8"?>
<svg id="Layer_1" data-name="Layer 1" xmlns="http://www.w3.org/2000/svg" viewBox="0 0 19.66 4.66">
  <defs>
    <style>
      .cls-1 {
        fill: #fff;
        stroke-width: 0px;
      }
    </style>
  </defs>
  <path class="cls-1" d="m0,4.63c.36-.13.72-.25,1.06-.41.37-.17.74-.34,1.15-.44.15-.04.27-.15.41-.22.2-.1.39-.21.59-.3.18-.08.38-.13.56-.21.14-.06.28-.12.32-.3.01-.05.08-.1.14-.12.24-.12.42-.3.56-.52.13-.2.24-.42.54-.43.02,0,.04-.01.05-.03.23-.32.64-.25.94-.42.3-.17.62-.3.95-.42-.39.35-.79.69-1.18,1.04,0,.01,0,.02,0,.04.09-.01.18-.01.26-.03.34-.09.68-.18,1.01-.27.03,0,.06-.02.08-.02.42.07.73-.18,1.07-.36.12-.07.25-.12.37-.2.12-.07.23-.15.34-.24.11-.09.21-.2.32-.3.09-.08.16-.2.31-.09.01,0,.05,0,.07-.01.6-.2,1.45-.35,2.21-.37-.68.3-1.33.56-1.84,1.09.05-.02.09-.03.14-.05.36-.18.73-.21,1.11-.07.3.11.59.09.9,0,.54-.16,1.08-.31,1.62-.45.07-.02.15-.02.25-.03-.36.2-.7.39-1.03.57l.03.07c.83.14,1.6-.2,2.41-.3-.03.02-.07.04-.1.05-.04.02-.09.04-.17.07.12.03.19.05.27.06.55.08,1.13.08,1.65.25.72.23,1.44.22,2.17.25.03,0,.06,0,.09,0,0,0,.02,0,.05.03-.28.06-.55.11-.82.18-.33.09-.67.19-.99.29-.13.04-.25.13-.38.18-.17.07-.34.14-.52.18-.59.12-1.19.23-1.78.35-.09.02-.18.06-.32.11.09.05.13.08.22.13-.68.05-1.34-.13-2,.13.21.2.46.2.68.27v.05c-.2.02-.41.07-.61.05-.32-.02-.64-.1-.96-.12-.18-.01-.36.03-.53.05-.27.04-.54.08-.81.13-.13.03-.3-.01-.38.16,0,0-.02.01-.03.01-.51.03-1.01.16-1.55.05-.62-.13-1.29-.14-1.92.07-.3.1-.58.14-.9.12-.42-.03-.83.04-1.22.22-.23.1-.46.12-.71.09-.28-.04-.56-.02-.82.12-.11.06-.27.08-.39.06-.36-.07-.7-.02-1.05.02-.62.07-1.25.13-1.87.2,0-.01,0-.02,0-.03Z"/>
</svg>