<?xml version="1.0" encoding="UTF-8"?>
<svg id="Layer_1" data-name="Layer 1" xmlns="http://www.w3.org/2000/svg" viewBox="0 0 21.37 3.44">
  <defs>
    <style>
      .cls-1 {
        fill: #fff;
        stroke-width: 0px;
      }
    </style>
  </defs>
  <path class="cls-1" d="m0,2.86c.43-.09.87-.17,1.3-.28.47-.12.92-.27,1.39-.39.2-.05.4-.07.61-.09.3-.03.58-.1.86-.24.18-.09.4-.16.6-.16.42,0,.79-.1,1.15-.3.19-.1.41-.16.63-.18.48-.05.95-.11,1.4-.31.07-.03.17-.01.25-.01.28.01.58.09.84.03.45-.09.93-.04,1.33-.31.02-.01.06-.01.08-.02.19-.03.38-.05.56-.09.15-.03.3-.08.45,0,.06.03.14.02.21,0,.12-.02.24-.12.34.04.02.03.11,0,.17,0,.7-.06,1.39-.17,2.07-.38.3-.1.63-.11.95-.16,0,.02,0,.03.01.05-.45.19-.9.38-1.36.57,0,.02.01.04.02.07.38.1.77.14,1.16.05.34-.08.67-.18,1.01-.26.23-.05.47-.06.71-.09,0,.02,0,.03,0,.05-.08.03-.17.07-.25.1,0,.01,0,.02,0,.03.08.02.16.04.24.05.64.09,1.29.18,1.93.27.05,0,.12,0,.15.04.18.21.41.16.64.16.62,0,1.25,0,1.87,0,0,.02,0,.04,0,.06-.04.01-.09.02-.13.03-.63.12-1.26.23-1.89.37-.23.05-.45.17-.67.26-.03.01-.08.03-.09.05-.17.25-.45.23-.71.29-.48.1-.96.22-1.44.33-.04.01-.08.04-.16.08.07.06.12.11.2.18-.83-.02-1.63-.15-2.44.05.25.26.6.22.93.31-.07.02-.11.03-.15.04-.51.05-1,.09-1.52,0-.48-.07-.99.03-1.48.08-.18.02-.36.12-.53.19-.03,0-.06.01-.09.02-.64.03-1.27-.03-1.89-.19-.64-.16-1.29-.24-1.93-.07-.39.1-.74.04-1.1-.03-.42-.08-.84-.09-1.27-.02-.23.04-.47-.03-.71-.05-.24-.03-.48-.06-.73-.09-.23-.02-.45-.03-.68-.05-.24-.01-.48-.04-.72-.04-.72,0-1.44,0-2.16,0,0-.01,0-.02,0-.03Z"/>
</svg>